<?xml version="1.0" encoding="utf-8"?>
<!-- Generator: Adobe Illustrator 23.0.6, SVG Export Plug-In . SVG Version: 6.00 Build 0)  -->
<svg version="1.1" id="Layer_1" xmlns="http://www.w3.org/2000/svg" xmlns:xlink="http://www.w3.org/1999/xlink" x="0px" y="0px"
	 viewBox="0 0 360 58" style="enable-background:new 0 0 360 58;" xml:space="preserve">
<style type="text/css">
	.st0{fill:url(#SVGID_1_);}
	.st1{fill:#F74D56;}
	.st2{fill:#1C3802;}
	.st3{fill:url(#SVGID_2_);}
	.st4{fill:url(#SVGID_3_);}
	.st5{fill:url(#SVGID_4_);}
	.st6{fill:url(#SVGID_5_);}
	.st7{fill:#3E3EF9;}
	.st8{fill:url(#SVGID_6_);}
	.st9{fill:url(#SVGID_7_);}
	.st10{fill:url(#SVGID_8_);}
	.st11{fill:#A4FFFA;}
	.st12{fill:url(#SVGID_9_);}
	.st13{fill:#F953D6;}
	.st14{fill:url(#SVGID_10_);}
	.st15{fill:url(#SVGID_11_);}
	.st16{fill:#F9DA55;}
	.st17{fill:url(#SVGID_12_);}
	.st18{fill:url(#SVGID_13_);}
	.st19{fill:#EF8B06;}
	.st20{fill:#F47929;}
	.st21{fill:#1C2B39;}
	.st22{fill:url(#SVGID_14_);}
	.st23{fill:url(#SVGID_15_);}
	.st24{fill:url(#SVGID_16_);}
	.st25{fill:url(#SVGID_17_);}
	.st26{fill:url(#SVGID_18_);}
	.st27{fill:url(#SVGID_19_);}
	.st28{fill:url(#SVGID_20_);}
	.st29{fill:url(#SVGID_21_);}
	.st30{fill:url(#SVGID_22_);}
	.st31{fill:url(#SVGID_23_);}
	.st32{fill:url(#SVGID_24_);}
	.st33{fill:url(#SVGID_25_);}
	.st34{fill:url(#SVGID_26_);}
	.st35{fill:url(#SVGID_27_);}
	.st36{fill:url(#SVGID_28_);}
	.st37{fill:url(#SVGID_29_);}
	.st38{fill:url(#SVGID_30_);}
	.st39{fill:url(#SVGID_31_);}
	.st40{fill:url(#SVGID_32_);}
	.st41{fill:url(#SVGID_33_);}
	.st42{fill:url(#SVGID_34_);}
	.st43{fill:url(#SVGID_35_);}
	.st44{fill:url(#SVGID_36_);}
</style>
<g>
	
		<radialGradient id="SVGID_1_" cx="-290.2949" cy="238.617" r="5.0344" gradientTransform="matrix(-0.8879 0.46 -0.46 -0.8879 68.0016 387.8535)" gradientUnits="userSpaceOnUse">
		<stop  offset="0" style="stop-color:#F74D56"/>
		<stop  offset="1" style="stop-color:#F74D56;stop-opacity:0"/>
	</radialGradient>
	<circle class="st0" cx="216" cy="42.5" r="5"/>
	<g>
		<ellipse transform="matrix(0.9308 -0.3656 0.3656 0.9308 -0.1801 81.6617)" class="st1" cx="215.6" cy="41.3" rx="2.3" ry="4.3"/>
		
			<rect x="212.4" y="36" transform="matrix(-0.9308 0.3656 -0.3656 -0.9308 426.8336 -6.2051)" class="st2" width="3.2" height="2.5"/>
	</g>
</g>
<g>
	
		<radialGradient id="SVGID_2_" cx="-381.5854" cy="203.2596" r="5.0344" gradientTransform="matrix(-0.7323 0.681 -0.681 -0.7323 172.5704 440.1106)" gradientUnits="userSpaceOnUse">
		<stop  offset="0" style="stop-color:#F74D56"/>
		<stop  offset="1" style="stop-color:#F74D56;stop-opacity:0"/>
	</radialGradient>
	<circle class="st3" cx="313.6" cy="31.4" r="5"/>
	<g>
		
			<ellipse transform="matrix(0.7989 -0.6015 0.6015 0.7989 44.6196 194.3035)" class="st1" cx="312.9" cy="30.4" rx="2.3" ry="4.3"/>
		
			<rect x="308.7" y="25.7" transform="matrix(-0.7989 0.6015 -0.6015 -0.7989 574.4014 -138.0802)" class="st2" width="3.2" height="2.5"/>
	</g>
</g>
<g>
	
		<radialGradient id="SVGID_3_" cx="-408.235" cy="172.89" r="5.0344" gradientTransform="matrix(-0.4029 0.9153 -0.9153 -0.4029 347.6598 478.3011)" gradientUnits="userSpaceOnUse">
		<stop  offset="0" style="stop-color:#F74D56"/>
		<stop  offset="1" style="stop-color:#F74D56;stop-opacity:0"/>
	</radialGradient>
	<circle class="st4" cx="353.9" cy="35" r="5"/>
	<g>
		
			<ellipse transform="matrix(0.4954 -0.8686 0.8686 0.4954 148.1336 323.8219)" class="st1" cx="352.8" cy="34.4" rx="2.3" ry="4.3"/>
		
			<rect x="347.5" y="31" transform="matrix(-0.4954 0.8686 -0.8686 -0.4954 550.0594 -254.9887)" class="st2" width="3.2" height="2.5"/>
	</g>
</g>
<g>
	
		<radialGradient id="SVGID_4_" cx="-202.2917" cy="234.0107" r="5.0344" gradientTransform="matrix(-0.9562 -0.2928 0.2928 -0.9562 -131.854 190.1702)" gradientUnits="userSpaceOnUse">
		<stop  offset="0" style="stop-color:#F74D56"/>
		<stop  offset="1" style="stop-color:#F74D56;stop-opacity:0"/>
	</radialGradient>
	<circle class="st5" cx="130.1" cy="25.6" r="5"/>
	<g>
		
			<ellipse transform="matrix(0.3902 -0.9207 0.9207 0.3902 57.0616 135.1564)" class="st1" cx="130.6" cy="24.5" rx="4.3" ry="2.3"/>
		
			<rect x="130.6" y="19.3" transform="matrix(-0.9207 -0.3902 0.3902 -0.9207 245.9999 91.0785)" class="st2" width="3.2" height="2.5"/>
	</g>
</g>
<g>
	
		<radialGradient id="SVGID_5_" cx="-239.4439" cy="247.9691" r="5.0344" gradientTransform="matrix(0.3499 0.9368 -0.9368 0.3499 350.4873 171.0305)" gradientUnits="userSpaceOnUse">
		<stop  offset="0" style="stop-color:#A4FFFA"/>
		<stop  offset="1" style="stop-color:#A4FFFA;stop-opacity:0"/>
	</radialGradient>
	<circle class="st6" cx="34.4" cy="33.5" r="5"/>
	<g>
		<ellipse transform="matrix(0.968 -0.2511 0.2511 0.968 -7.4238 9.4226)" class="st7" cx="33.2" cy="33.8" rx="4.3" ry="2.3"/>
		<rect x="27.4" y="33.6" transform="matrix(0.2511 0.968 -0.968 0.2511 55.5153 -2.0109)" class="st2" width="3.2" height="2.5"/>
	</g>
</g>
<g>
	
		<radialGradient id="SVGID_6_" cx="-178.8669" cy="142.0952" r="5.0344" gradientTransform="matrix(-0.7761 -0.6306 0.6306 -0.7761 -52.5941 35.433)" gradientUnits="userSpaceOnUse">
		<stop  offset="0" style="stop-color:#A4FFFA"/>
		<stop  offset="1" style="stop-color:#A4FFFA;stop-opacity:0"/>
	</radialGradient>
	<circle class="st8" cx="175.8" cy="37.9" r="5"/>
	<g>
		
			<ellipse transform="matrix(0.7076 -0.7067 0.7067 0.7076 25.4736 135.7094)" class="st7" cx="176.7" cy="37.1" rx="4.3" ry="2.3"/>
		
			<rect x="178.1" y="32.8" transform="matrix(-0.7067 -0.7076 0.7076 -0.7067 282.6745 185.3006)" class="st2" width="3.2" height="2.5"/>
	</g>
</g>
<g>
	
		<radialGradient id="SVGID_7_" cx="-70.9405" cy="146.4781" r="5.0344" gradientTransform="matrix(0.9999 1.238779e-02 -1.238779e-02 0.9999 363.5692 -124.1261)" gradientUnits="userSpaceOnUse">
		<stop  offset="0" style="stop-color:#A4FFFA"/>
		<stop  offset="1" style="stop-color:#A4FFFA;stop-opacity:0"/>
	</radialGradient>
	<circle class="st9" cx="290.8" cy="21.5" r="5"/>
	<g>
		
			<ellipse transform="matrix(0.1158 -0.9933 0.9933 0.1158 234.4753 308.7767)" class="st7" cx="290.7" cy="22.7" rx="4.3" ry="2.3"/>
		
			<rect x="288.6" y="25.7" transform="matrix(0.9933 0.1158 -0.1158 0.9933 5.0747 -33.4302)" class="st2" width="3.2" height="2.5"/>
	</g>
</g>
<g>
	
		<radialGradient id="SVGID_8_" cx="-95.9007" cy="65.8385" r="5.0344" gradientTransform="matrix(-0.1477 -0.989 0.989 -0.1477 -18.9946 -56.127)" gradientUnits="userSpaceOnUse">
		<stop  offset="0" style="stop-color:#A4FFFA"/>
		<stop  offset="1" style="stop-color:#A4FFFA;stop-opacity:0"/>
	</radialGradient>
	<circle class="st10" cx="60.3" cy="29" r="5"/>
	<g>
		
			<ellipse transform="matrix(0.999 -4.448760e-02 4.448760e-02 0.999 -1.2268 2.7652)" class="st11" cx="61.5" cy="28.9" rx="4.3" ry="2.3"/>
		
			<rect x="64.2" y="27.5" transform="matrix(-4.448760e-02 -0.999 0.999 -4.448760e-02 39.9901 95.7851)" class="st2" width="3.2" height="2.5"/>
	</g>
</g>
<g>
	
		<radialGradient id="SVGID_9_" cx="183.7392" cy="-74.7866" r="5.0344" gradientTransform="matrix(0.9966 8.282313e-02 -8.282313e-02 0.9966 134.1629 94.3666)" gradientUnits="userSpaceOnUse">
		<stop  offset="0" style="stop-color:#F953D6"/>
		<stop  offset="1" style="stop-color:#F953D6;stop-opacity:0"/>
	</radialGradient>
	<circle class="st12" cx="323.5" cy="35.1" r="5"/>
	<g>
		
			<ellipse transform="matrix(0.1855 -0.9826 0.9826 0.1855 227.628 347.159)" class="st13" cx="323.2" cy="36.3" rx="4.3" ry="2.3"/>
		
			<rect x="320.8" y="39.2" transform="matrix(0.9826 0.1855 -0.1855 0.9826 13.1095 -59.1216)" class="st2" width="3.2" height="2.5"/>
	</g>
</g>
<g>
	
		<radialGradient id="SVGID_10_" cx="179.6149" cy="-33.5188" r="5.0344" gradientTransform="matrix(-0.9953 -9.729120e-02 9.729120e-02 -0.9953 456.8734 16.5806)" gradientUnits="userSpaceOnUse">
		<stop  offset="0" style="stop-color:#F953D6"/>
		<stop  offset="1" style="stop-color:#F953D6;stop-opacity:0"/>
	</radialGradient>
	<circle class="st14" cx="274.8" cy="32.5" r="5"/>
	<g>
		
			<ellipse transform="matrix(0.1998 -0.9798 0.9798 0.1998 189.5015 294.5629)" class="st13" cx="275.1" cy="31.3" rx="4.3" ry="2.3"/>
		
			<rect x="274.4" y="25.8" transform="matrix(-0.9798 -0.1998 0.1998 -0.9798 540.9632 108.7048)" class="st2" width="3.2" height="2.5"/>
	</g>
</g>
<g>
	
		<radialGradient id="SVGID_11_" cx="35.5599" cy="10.1661" r="5.0344" gradientTransform="matrix(0.9259 0.3777 -0.3777 0.9259 16.677 21.9327)" gradientUnits="userSpaceOnUse">
		<stop  offset="0" style="stop-color:#F9DA55"/>
		<stop  offset="1" style="stop-color:#F9DA55;stop-opacity:0"/>
	</radialGradient>
	<circle class="st15" cx="45.8" cy="44.8" r="5"/>
	<g>
		<ellipse transform="matrix(0.4715 -0.8819 0.8819 0.4715 -16.5621 64.085)" class="st16" cx="45.2" cy="45.9" rx="4.3" ry="2.3"/>
		
			<rect x="41.5" y="48.4" transform="matrix(0.8819 0.4715 -0.4715 0.8819 28.5009 -14.4797)" class="st2" width="3.2" height="2.5"/>
	</g>
</g>
<g>
	
		<radialGradient id="SVGID_12_" cx="293.4053" cy="-48.6732" r="5.0344" gradientTransform="matrix(-0.9953 -9.729120e-02 9.729120e-02 -0.9953 456.8734 16.5806)" gradientUnits="userSpaceOnUse">
		<stop  offset="0" style="stop-color:#F953D6"/>
		<stop  offset="1" style="stop-color:#F953D6;stop-opacity:0"/>
	</radialGradient>
	<circle class="st17" cx="160.1" cy="36.5" r="5"/>
	<g>
		
			<ellipse transform="matrix(0.1998 -0.9798 0.9798 0.1998 93.7677 185.3612)" class="st13" cx="160.4" cy="35.3" rx="4.3" ry="2.3"/>
		
			<rect x="159.6" y="29.8" transform="matrix(-0.9798 -0.1998 0.1998 -0.9798 313.0249 93.7252)" class="st2" width="3.2" height="2.5"/>
	</g>
</g>
<g>
	
		<radialGradient id="SVGID_13_" cx="38.7299" cy="105.0844" r="5.0344" gradientTransform="matrix(-0.8855 0.4646 -0.4646 -0.8855 187.9852 98.4122)" gradientUnits="userSpaceOnUse">
		<stop  offset="0" style="stop-color:#EF8B06"/>
		<stop  offset="1" style="stop-color:#EF8B06;stop-opacity:0"/>
	</radialGradient>
	<circle class="st18" cx="104.9" cy="23.3" r="5"/>
	<g>
		
			<ellipse transform="matrix(0.9289 -0.3704 0.3704 0.9289 -0.7981 40.2529)" class="st19" cx="104.4" cy="22.2" rx="2.3" ry="4.3"/>
		
			<rect x="101.2" y="16.9" transform="matrix(-0.9289 0.3704 -0.3704 -0.9289 205.107 -2.9617)" class="st2" width="3.2" height="2.5"/>
	</g>
</g>
<g>
	<path class="st20" d="M37.1,37.8h-8.3c-4.6,0-8.3-3.7-8.3-8.3c0-4.6,3.7-8.3,8.3-8.3c2.2,0,4.3,0.9,5.9,2.4
		c1.6,1.6,2.4,3.7,2.4,5.9L37.1,37.8 M44,44.6l0-15.2c0-4-1.6-7.9-4.4-10.7c-2.9-2.9-6.7-4.4-10.7-4.4c-8.4,0-15.2,6.8-15.2,15.2
		s6.8,15.2,15.2,15.2H44z M50.8,51.5l0-22c0-5.9-2.3-11.4-6.4-15.5c-4.2-4.1-9.7-6.4-15.5-6.4c-12.1,0-22,9.9-22,22
		c0,12.1,9.9,22,22,22H50.8z M28.8,58.3C12.9,58.3,0,45.4,0,29.5C0,13.6,12.9,0.7,28.8,0.7c15.9,0,28.8,12.9,28.8,28.8v28.8H28.8z"
		/>
	<path class="st21" d="M248.7,15.4h-11.6c-4.5,0-8.2,3.6-8.2,8.2v19.7h7.7V25c0-1.6,1.3-2.9,2.9-2.9h6.7c1.6,0,2.9,1.3,2.9,2.9v18.3
		h7.7V23.5C256.8,19,253.2,15.4,248.7,15.4 M324.8,43.3h7.7V15.4h-7.7V43.3z M343.2,27.6l11.4-12.3H345l-9.7,10.5
		c-1.5,1.6-1.6,4.4-0.1,6l9.8,11.4h9.6l-11.4-13.2C342.6,29.4,342.6,28.3,343.2,27.6z M310.2,15.4L310.2,15.4L310.2,15.4h-6.7v0
		c-5.8,0-10.6,4.7-10.6,10.6l0,0v17.3h7.7v-5.8h9.6c5.8,0,10.5-4.7,10.6-10.5l0,0v-1C320.7,20.1,316,15.4,310.2,15.4z M313.1,27.9
		c0,1.6-1.3,2.9-2.9,2.9h-9.6V25c0-1.6,1.3-2.9,2.9-2.9h6.7c1.6,0,2.9,1.3,2.9,2.9L313.1,27.9L313.1,27.9z M278.2,15.4h-6.7
		c-5.8,0-10.6,4.7-10.6,10.6v17.3h7.7v-5.8h12.5v5.8h7.7V25.9C288.8,20.1,284.1,15.4,278.2,15.4z M281.1,30.7h-12.5V25
		c0-1.6,1.3-2.9,2.9-2.9h6.7c1.6,0,2.9,1.3,2.9,2.9L281.1,30.7L281.1,30.7z M150.1,15.4L150.1,15.4L150.1,15.4h-6.7v0
		c-5.8,0-10.6,4.7-10.6,10.6h0v6.7v10.6h7.7v-5.8h9.6c5.8,0,10.5-4.7,10.6-10.5l0,0v-1C160.7,20.1,156,15.4,150.1,15.4z M153,27.9
		c0,1.6-1.3,2.9-2.9,2.9h-9.6V25c0-1.6,1.3-2.9,2.9-2.9h6.7c1.6,0,2.9,1.3,2.9,2.9L153,27.9L153,27.9z M219.8,15.4h-0.2
		c-1.7,0-3.3,0.7-4.4,2l-11.7,13.9V15.4h-7.7v23.1c0,2.7,2.2,4.8,4.8,4.8h0.2c1.7,0,3.3-0.7,4.4-2L217,27.3v15.9h7.7V20.2
		C224.6,17.5,222.5,15.4,219.8,15.4z M206.4,13.5h7.7c1.6,0,2.9-1.3,2.9-2.9v0V7.7h-13.4v2.9v0C203.5,12.2,204.8,13.5,206.4,13.5z
		 M181.9,15.4h-7.7c-5.8,0-10.6,4.7-10.6,10.6v6.7c0,5.8,4.7,10.6,10.6,10.6h7.7c5.8,0,10.6-4.7,10.6-10.6v-6.7
		C192.5,20.1,187.7,15.4,181.9,15.4z M184.8,33.6c0,1.6-1.3,2.9-2.9,2.9h-7.7c-1.6,0-2.9-1.3-2.9-2.9V25c0-1.6,1.3-2.9,2.9-2.9h7.7
		c1.6,0,2.9,1.3,2.9,2.9V33.6z M84.6,33.6V25c0-1.6,1.3-2.9,2.9-2.9h12.5v-6.7H87.4c-5.8,0-10.6,4.7-10.6,10.6v6.7
		c0,5.8,4.7,10.6,10.6,10.6h12.5v-6.7H87.4C85.8,36.5,84.6,35.2,84.6,33.6z M103.8,22.1h9.5v21.1h7.7V22.1h9.6v-6.7h-26.8
		C103.8,15.4,103.8,22.1,103.8,22.1z"/>
</g>
<g>
	<path class="st2" d="M27.8,37.8h1.9c-1.9-4.6-2.5-10.7,0-16.3c2.3-5.1,6.4-8.7,11.1-10.6c-0.2-0.1-0.4-0.2-0.5-0.4
		c-0.1,0-0.1-0.1-0.2-0.1c-0.1,0-0.3-0.1-0.4-0.1c-0.4-0.2-0.8-0.3-1.1-0.5c-4.6,2.3-8.6,6.2-10.7,11c-2.6,5.9-2.2,12-0.4,17
		C27.6,37.8,27.7,37.8,27.8,37.8z"/>
	<path class="st2" d="M31.5,44.6c2.5,2.9,5.6,5.2,9,6.8c1.7,0,3.5,0,5.2,0c0.3,0,0.6,0,0.9,0c-4.8-1.1-9.1-3.4-12.4-6.8H31.5z"/>
	<path class="st2" d="M89.1,26.4c-2,2.3-3.7,4.3-5.2,6.1c-4,4.7-6.6,7.8-11,11.9c-3.9,3.6-9,6.1-14.4,7.2c2.9-2,5.3-4.5,6.9-7.8
		c3.4-6.9,3.8-16.4,1.1-23.8c-2-5.4-5.5-9.3-10.1-11.3c-3-1.2-6.2-1.7-9.4-1.4c0,0,0,0,0,0c0.3,0.2,0.5,0.4,0.8,0.6
		c0.4,0.4,0.7,0.8,1.1,1.2c0,0,0,0.1,0.1,0.1c0,0,0,0,0,0c2.4,0,4.6,0.4,6.6,1.3c5.2,2.2,7.8,6.7,9,10.1c2.6,6.9,2.2,15.9-1,22.3
		c-2.1,4.2-5.8,7.2-10.2,9.1c-0.7,0.5-1.5,1-2.4,1.2c-1.1,0.3-2.2,0.6-3.3,0.6c-10,2.2-22.1,0.5-30.2-3.3C9.7,46.5,7.7,42.3,6.6,40
		c-0.1-0.3-0.3-0.5-0.4-0.8c-5-9.4-2.7-19.1,0.7-24.6c2.8-4.4,6.7-7,10.5-6.8c0.6,0,1-0.4,1-1c0-0.6-0.4-1-1-1
		C13,5.7,8.4,8.5,5.2,13.6C1.5,19.5-1,30,4.4,40.2c0.1,0.2,0.2,0.4,0.4,0.7C6,43.4,8.2,48,16.9,52.2c6,2.9,13.8,4.6,21.6,4.6
		c5.4,0,10.7-0.8,15.3-2.7c0.1-0.1,0.2-0.2,0.4-0.3c0.8-0.3,1.5-0.6,2.3-0.8c0,0,0,0,0,0c0,0,0.1-0.1,0.1-0.1
		c0.1-0.1,0.2-0.1,0.3-0.1c0.1-0.1,0.2-0.2,0.4-0.2c0.3,0,0.5,0.2,0.5,0.5c0,0.2,0,0.4,0,0.6c6.3-0.9,12.2-3.7,16.8-7.9
		c4.4-4.1,7.1-7.3,11.1-12c1.5-1.8,3.1-3.7,5.1-6c0.8-0.9,2.9-3.2,5.9-5.7h-3.1C91.5,23.9,90,25.5,89.1,26.4z"/>
	<path class="st2" d="M142,22.4c-0.1,0-0.2,0.1-0.3,0.2c0,0-0.1,0-0.1,0.1c0,0,0,0,0,0c-0.1,0-0.1,0.1-0.2,0.1
		c-0.1,0.1-0.2,0.2-0.3,0.3c0,0,0,0-0.1,0.1c0,0,0,0,0,0c0,0.1-0.1,0.1-0.1,0.2c-0.1,0.2-0.2,0.4-0.3,0.6c1.9,0.9,4,1.8,6.5,2.7
		c5.2,1.9,10.8,4,16.5,4.8v-2c-5.5-0.8-10.8-2.8-15.8-4.6C145.7,24,143.7,23.2,142,22.4z"/>
	<path class="st2" d="M194.6,14.7c0.8-2.2,0.9-4.2,0.1-5.6c-0.8-1.6-2.5-2.6-4.8-2.9c-4.2-0.4-9.5,1.9-12.2,5.4
		c-0.8,1.1-1.4,2.4-1.8,3.9c0.7,0,1.4,0,2.1,0c0.3-1,0.7-1.9,1.3-2.6c2.1-2.7,6.2-4.6,9.6-4.6c0.3,0,0.5,0,0.8,0
		c1.1,0.1,2.5,0.5,3.2,1.8c0.5,0.9,0.4,2.3-0.2,4c-1.6,4.3-6.8,10.4-13.6,13.5c-0.3-0.8-0.6-1.6-0.8-2.3c-0.3-1.1-0.5-2.1-0.7-3.1
		h-2c0.2,1.2,0.4,2.4,0.8,3.7c0.2,0.8,0.5,1.7,0.9,2.5c-2,0.7-4,1.2-6.1,1.4v2c2.3-0.2,4.6-0.7,6.9-1.6c1.1,2.2,2.5,4.4,4.3,6.4
		c0.1,0,0.2,0,0.4-0.1c0.1,0,0.2,0,0.3,0c0,0,0.1,0,0.1,0c0.1,0,0.1-0.1,0.2-0.1c0,0,0.1-0.1,0.1,0c-0.1,0,0,0,0,0
		c0.1-0.1,0.2-0.2,0.3-0.3c0,0,0.1-0.1,0.1-0.1c0,0,0,0,0-0.1c0,0,0,0,0,0c0.1-0.1,0.1-0.2,0.2-0.3c0,0,0,0,0,0
		c-1.7-1.8-3.1-3.9-4.2-6C187.2,26,192.9,19.4,194.6,14.7z"/>
	<path class="st2" d="M216.9,33.5c-4,1.5-7.3,3-9.9,4.2c-6.4,3-10,4.6-15.1,2.8c-0.8-0.3-1.5-0.6-2.2-1c-0.3,0.3-0.6,0.6-0.9,0.8
		c-0.2,0.2-0.5,0.4-0.7,0.6c1,0.6,2.1,1,3.2,1.4c5.8,2.1,9.9,0.2,16.6-2.9c2.6-1.2,5.5-2.5,9.1-3.9c0-0.2,0-0.5,0-0.7
		C216.9,34.4,216.9,34,216.9,33.5z"/>
	<path class="st2" d="M249.2,25.8C249.2,25.7,249.2,25.8,249.2,25.8c0-0.1,0-0.1,0-0.2c0-0.1-0.1-0.2-0.1-0.3c0,0,0,0,0,0
		c-9.4,1.3-17,3.4-22.2,4.9c-0.8,0.2-1.5,0.4-2.2,0.7c0,0.7-0.1,1.4-0.1,2.1c0.9-0.3,1.9-0.6,2.9-0.9c5.1-1.4,12.6-3.6,21.8-4.8
		c0-0.2,0-0.3,0-0.5v-0.9C249.2,25.8,249.2,25.8,249.2,25.8C249.2,25.8,249.2,25.8,249.2,25.8z"/>
	<path class="st2" d="M261.1,24.3c-1.5,0-2.9,0.1-4.3,0.2c0,0.1,0,0.2-0.1,0.4c0,0.3,0.1,0.7,0.1,1c0,0.2,0,0.4,0,0.7
		c1.4-0.1,2.8-0.2,4.3-0.2c-0.1-0.4-0.1-0.7,0-1.1C261,24.9,261.1,24.6,261.1,24.3z"/>
	<path class="st2" d="M292.8,27.9c-1.8-0.3-3.7-0.6-5.8-1c-3.7-0.7-7.8-1.5-13-2.1c-1.8-0.2-3.7-0.3-5.4-0.4c0,0.5,0,1.1-0.1,1.6
		c0,0,0,0.1,0,0.1c0,0.1,0,0.2,0,0.2c1.7,0.1,3.5,0.2,5.3,0.4c5.1,0.5,9.2,1.3,12.8,2c2.2,0.4,4.3,0.8,6.3,1.1
		C292.8,29.2,292.7,28.5,292.8,27.9z"/>
	<path class="st2" d="M348.9,15.5c0.7-0.1,1.4,0,2,0c-1.3-6.2-4.4-10.6-4.6-10.9c-0.3-0.5-0.9-0.6-1.4-0.2c-0.5,0.3-0.6,0.9-0.2,1.4
		C344.9,5.9,347.7,9.9,348.9,15.5z"/>
	<path class="st2" d="M351.4,18.9c-0.2,0.3-0.5,0.5-0.7,0.8c-0.2,0.2-0.4,0.4-0.7,0.6c-0.2,0.2-0.3,0.4-0.6,0.6
		c0,2.6-0.5,5.3-1.8,8.1c-5,11-18.7,14.6-28.5,11.6c-6.9-2.1-12.3-6.1-15.5-11.4c0.9-0.3,1.7-0.7,2.6-1.1c2.3-1.1,4.5-2.7,6.5-4.5
		c-0.2-0.2-0.3-0.4-0.4-0.6c0,0,0,0,0,0c-0.3-0.3-0.7-0.5-1.1-0.7c-1.8,1.6-3.8,3-5.8,4c-0.9,0.5-1.8,0.8-2.7,1.1
		c-0.4-0.8-0.7-1.6-1-2.4c-2-5.9-1.1-12.2,2.4-17.2c1.4-1.5,4.3-2.1,7.2-1.5c2.9,0.6,4.9,2.1,5.7,4.2c0.7,1.9,0,4.3-1.5,6.8
		c0,0,0,0,0.1,0c0.6,0.3,1,0.7,1.5,1.2c0,0,0,0,0.1,0c1.9-3,2.7-6,1.7-8.7c-1-2.8-3.6-4.7-7.2-5.4c-3.7-0.7-7.3,0.1-9.2,2.2
		c0,0,0,0.1-0.1,0.1c-4,5.5-5,12.5-2.7,19.1c0.3,0.8,0.6,1.6,0.9,2.3c-0.1,0-0.3,0-0.4,0.1c0,0.1,0,0.2,0,0.3c0,0,0,0,0,0
		c0.2,0.5,0.2,1.2,0.1,1.7c0.4-0.1,0.8-0.1,1.2-0.2c3.4,6,9.4,10.5,16.9,12.8c10.6,3.2,25.5-0.7,30.9-12.7
		C351.3,26,351.7,22.3,351.4,18.9z"/>
	<path class="st2" d="M118.3,11.3c-7.1-0.1-13.4,2.6-18.4,5.9c0,0.7,0,1.4,0,2c0,0.1,0,0.3,0,0.4c4.8-3.3,11-6.3,18-6.3
		c0.1,0,0.3,0,0.4,0c3.5,0.1,5.9,0.9,8.3,2.2h3.4c0.1,0,0.1,0,0.2,0c0.3,0,0.5,0.2,0.5,0.5c0,0,0,0,0,0c0,0,0,0,0,0v2.1
		c1.2,0.8,2.4,1.6,3.9,2.5c0.1-0.2,0.2-0.4,0.3-0.6c0.2-0.4,0.5-0.8,0.9-1c-1.5-0.9-2.9-1.8-4.1-2.7
		C127.3,13.4,124.2,11.3,118.3,11.3z"/>
</g>
<g>
	<radialGradient id="SVGID_14_" cx="120.1377" cy="5.058" r="5.0344" gradientUnits="userSpaceOnUse">
		<stop  offset="0" style="stop-color:#F9DA55"/>
		<stop  offset="1" style="stop-color:#F9DA55;stop-opacity:0"/>
	</radialGradient>
	<circle class="st22" cx="120.1" cy="5.1" r="5"/>
	<g>
		<ellipse transform="matrix(0.1035 -0.9946 0.9946 0.1035 101.3389 124.9968)" class="st16" cx="120" cy="6.3" rx="4.3" ry="2.3"/>
		
			<rect x="117.9" y="9.3" transform="matrix(0.9946 0.1035 -0.1035 0.9946 1.7345 -12.3196)" class="st2" width="3.2" height="2.5"/>
	</g>
</g>
<g>
	
		<radialGradient id="SVGID_15_" cx="10.7636" cy="36.3306" r="5.0344" gradientTransform="matrix(0.4733 0.8809 -0.8809 0.4733 38.5027 10.1494)" gradientUnits="userSpaceOnUse">
		<stop  offset="0" style="stop-color:#F9DA55"/>
		<stop  offset="1" style="stop-color:#F9DA55;stop-opacity:0"/>
	</radialGradient>
	<circle class="st23" cx="11.6" cy="36.8" r="5"/>
	<g>
		<ellipse transform="matrix(0.9252 -0.3796 0.3796 0.9252 -13.374 6.7605)" class="st16" cx="10.5" cy="37.3" rx="4.3" ry="2.3"/>
		<rect x="4.9" y="37.6" transform="matrix(0.3796 0.9252 -0.9252 0.3796 40.0183 18.1466)" class="st2" width="3.2" height="2.5"/>
	</g>
</g>
<g>
	
		<radialGradient id="SVGID_16_" cx="165.5978" cy="26.5666" r="5.0344" gradientTransform="matrix(0.5802 -0.8145 0.8145 0.5802 55.8209 126.1527)" gradientUnits="userSpaceOnUse">
		<stop  offset="0" style="stop-color:#F9DA55"/>
		<stop  offset="1" style="stop-color:#F9DA55;stop-opacity:0"/>
	</radialGradient>
	<circle class="st24" cx="173.5" cy="6.7" r="5"/>
	<g>
		<ellipse transform="matrix(0.6614 -0.75 0.75 0.6614 53.4439 133.3931)" class="st16" cx="174.5" cy="7.5" rx="2.3" ry="4.3"/>
		<rect x="176.1" y="9.1" transform="matrix(0.6614 -0.75 0.75 0.6614 52.3935 136.7665)" class="st2" width="3.2" height="2.5"/>
	</g>
</g>
<g>
	
		<radialGradient id="SVGID_17_" cx="180.063" cy="46.667" r="5.0344" gradientTransform="matrix(-0.9419 0.3358 -0.3358 -0.9419 428.5427 17.9549)" gradientUnits="userSpaceOnUse">
		<stop  offset="0" style="stop-color:#F9DA55"/>
		<stop  offset="1" style="stop-color:#F9DA55;stop-opacity:0"/>
	</radialGradient>
	<circle class="st25" cx="243.3" cy="34.5" r="5"/>
	<g>
		<ellipse transform="matrix(0.9716 -0.2365 0.2365 0.9716 -0.9762 58.4138)" class="st16" cx="243" cy="33.3" rx="2.3" ry="4.3"/>
		
			<rect x="240.4" y="27.8" transform="matrix(-0.9716 0.2365 -0.2365 -0.9716 483.9619 0.1429)" class="st2" width="3.2" height="2.5"/>
	</g>
</g>
<g>
	
		<radialGradient id="SVGID_18_" cx="137.0824" cy="55.1982" r="5.0344" gradientTransform="matrix(0.369 -0.9294 0.9294 0.369 193.9708 112.4055)" gradientUnits="userSpaceOnUse">
		<stop  offset="0" style="stop-color:#F9DA55"/>
		<stop  offset="1" style="stop-color:#F9DA55;stop-opacity:0"/>
	</radialGradient>
	<circle class="st26" cx="295.9" cy="5.4" r="5"/>
	<g>
		
			<ellipse transform="matrix(0.4632 -0.8862 0.8862 0.4632 154.1358 266.351)" class="st16" cx="296.9" cy="5.9" rx="2.3" ry="4.3"/>
		
			<rect x="299.1" y="6.7" transform="matrix(0.4632 -0.8862 0.8862 0.4632 154.4014 270.7916)" class="st2" width="3.2" height="2.5"/>
	</g>
</g>
<g>
	
		<radialGradient id="SVGID_19_" cx="115.6358" cy="48.7794" r="5.0344" gradientTransform="matrix(0.9992 4.032346e-02 -4.032346e-02 0.9992 146.7657 -35.0794)" gradientUnits="userSpaceOnUse">
		<stop  offset="0" style="stop-color:#EF8B06"/>
		<stop  offset="1" style="stop-color:#EF8B06;stop-opacity:0"/>
	</radialGradient>
	<circle class="st27" cx="260.3" cy="18.3" r="5"/>
	<g>
		
			<ellipse transform="matrix(0.1435 -0.9896 0.9896 0.1435 203.4807 274.2052)" class="st19" cx="260.2" cy="19.5" rx="4.3" ry="2.3"/>
		
			<rect x="257.9" y="22.5" transform="matrix(0.9896 0.1435 -0.1435 0.9896 6.1023 -37.0084)" class="st2" width="3.2" height="2.5"/>
	</g>
</g>
<g>
	
		<radialGradient id="SVGID_20_" cx="54.2389" cy="35.7452" r="5.0344" gradientTransform="matrix(0.6919 0.722 -0.722 0.6919 187.6821 -57.8919)" gradientUnits="userSpaceOnUse">
		<stop  offset="0" style="stop-color:#EF8B06"/>
		<stop  offset="1" style="stop-color:#EF8B06;stop-opacity:0"/>
	</radialGradient>
	<circle class="st28" cx="199.4" cy="6" r="5"/>
	<g>
		<ellipse transform="matrix(0.7898 -0.6134 0.6134 0.7898 37.5755 123.142)" class="st19" cx="198.4" cy="6.8" rx="4.3" ry="2.3"/>
		
			<rect x="193.4" y="8.1" transform="matrix(0.6134 0.7898 -0.7898 0.6134 82.7999 -150.4004)" class="st2" width="3.2" height="2.5"/>
	</g>
</g>
<g>
	
		<radialGradient id="SVGID_21_" cx="31.7634" cy="78.9822" r="5.0344" gradientTransform="matrix(0.9509 0.3095 -0.3095 0.9509 146.0346 -65.2622)" gradientUnits="userSpaceOnUse">
		<stop  offset="0" style="stop-color:#A4FFFA"/>
		<stop  offset="1" style="stop-color:#A4FFFA;stop-opacity:0"/>
	</radialGradient>
	<circle class="st29" cx="151.8" cy="19.7" r="5"/>
	<g>
		
			<ellipse transform="matrix(0.4063 -0.9138 0.9138 0.4063 70.8242 150.5926)" class="st11" cx="151.3" cy="20.8" rx="4.3" ry="2.3"/>
		
			<rect x="147.9" y="23.4" transform="matrix(0.9138 0.4063 -0.4063 0.9138 22.938 -58.6214)" class="st2" width="3.2" height="2.5"/>
	</g>
</g>
<g>
	
		<radialGradient id="SVGID_22_" cx="-89.0054" cy="110.6706" r="5.0344" gradientTransform="matrix(-0.7954 0.6061 -0.6061 -0.7954 37.0856 159.8252)" gradientUnits="userSpaceOnUse">
		<stop  offset="0" style="stop-color:#A4FFFA"/>
		<stop  offset="1" style="stop-color:#A4FFFA;stop-opacity:0"/>
	</radialGradient>
	<circle class="st30" cx="40.8" cy="17.9" r="5"/>
	<g>
		<ellipse transform="matrix(0.8539 -0.5205 0.5205 0.8539 -2.8767 23.3594)" class="st11" cx="40.2" cy="16.8" rx="2.3" ry="4.3"/>
		
			<rect x="36.3" y="11.9" transform="matrix(-0.8539 0.5205 -0.5205 -0.8539 77.1635 4.5932)" class="st2" width="3.2" height="2.5"/>
	</g>
</g>
<g>
	
		<radialGradient id="SVGID_23_" cx="-69.0399" cy="116.2393" r="5.0344" gradientTransform="matrix(0.6397 -0.7687 0.7687 0.6397 -39.7906 -121.8435)" gradientUnits="userSpaceOnUse">
		<stop  offset="0" style="stop-color:#A4FFFA"/>
		<stop  offset="1" style="stop-color:#A4FFFA;stop-opacity:0"/>
	</radialGradient>
	<circle class="st31" cx="5.4" cy="5.6" r="5"/>
	<g>
		<ellipse transform="matrix(0.7158 -0.6983 0.6983 0.7158 -2.7325 6.2035)" class="st11" cx="6.3" cy="6.5" rx="2.3" ry="4.3"/>
		<rect x="7.6" y="8.3" transform="matrix(0.7158 -0.6983 0.6983 0.7158 -4.036 9.1663)" class="st2" width="3.2" height="2.5"/>
	</g>
</g>
<g>
	
		<radialGradient id="SVGID_24_" cx="-50.1972" cy="215.8003" r="5.0344" gradientTransform="matrix(-0.6768 0.7362 -0.7362 -0.6768 203.4637 233.3831)" gradientUnits="userSpaceOnUse">
		<stop  offset="0" style="stop-color:#A4FFFA"/>
		<stop  offset="1" style="stop-color:#A4FFFA;stop-opacity:0"/>
	</radialGradient>
	<circle class="st32" cx="78.6" cy="50.4" r="5"/>
	<g>
		
			<ellipse transform="matrix(0.7494 -0.6621 0.6621 0.7494 -13.2574 63.8815)" class="st11" cx="77.8" cy="49.5" rx="2.3" ry="4.3"/>
		
			<rect x="73.3" y="45" transform="matrix(-0.7494 0.6621 -0.6621 -0.7494 161.6823 31.257)" class="st2" width="3.2" height="2.5"/>
	</g>
</g>
<g>
	
		<radialGradient id="SVGID_25_" cx="-165.0149" cy="109.3049" r="5.0344" gradientTransform="matrix(0.9571 -0.2898 0.2898 0.9571 351.5595 -127.9944)" gradientUnits="userSpaceOnUse">
		<stop  offset="0" style="stop-color:#A4FFFA"/>
		<stop  offset="1" style="stop-color:#A4FFFA;stop-opacity:0"/>
	</radialGradient>
	<circle class="st33" cx="225.3" cy="24.4" r="5"/>
	<g>
		<ellipse transform="matrix(0.9819 -0.1892 0.1892 0.9819 -0.78 43.1286)" class="st11" cx="225.5" cy="25.7" rx="2.3" ry="4.3"/>
		
			<rect x="224.7" y="28.6" transform="matrix(0.9819 -0.1892 0.1892 0.9819 -1.5636 43.3558)" class="st2" width="3.2" height="2.5"/>
	</g>
</g>
<g>
	
		<radialGradient id="SVGID_26_" cx="-80.8118" cy="133.6882" r="5.0344" gradientTransform="matrix(0.1592 -0.9872 0.9872 0.1592 223.3061 -76.3581)" gradientUnits="userSpaceOnUse">
		<stop  offset="0" style="stop-color:#A4FFFA"/>
		<stop  offset="1" style="stop-color:#A4FFFA;stop-opacity:0"/>
	</radialGradient>
	<circle class="st34" cx="342.4" cy="24.7" r="5"/>
	<g>
		
			<ellipse transform="matrix(0.2606 -0.9655 0.9655 0.2606 229.9133 350.2477)" class="st11" cx="343.6" cy="25" rx="2.3" ry="4.3"/>
		
			<rect x="346.1" y="24.9" transform="matrix(0.2606 -0.9655 0.9655 0.2606 231.8826 355.0833)" class="st2" width="3.2" height="2.5"/>
	</g>
</g>
<g>
	
		<radialGradient id="SVGID_27_" cx="-66.1342" cy="114.8654" r="5.0344" gradientTransform="matrix(0.5412 0.8409 -0.8409 0.5412 456.4968 -0.1265)" gradientUnits="userSpaceOnUse">
		<stop  offset="0" style="stop-color:#A4FFFA"/>
		<stop  offset="1" style="stop-color:#A4FFFA;stop-opacity:0"/>
	</radialGradient>
	<circle class="st35" cx="324.1" cy="6.4" r="5"/>
	<g>
		<ellipse transform="matrix(0.8924 -0.4513 0.4513 0.8924 31.6083 146.5208)" class="st11" cx="323" cy="7" rx="4.3" ry="2.3"/>
		
			<rect x="317.6" y="7.6" transform="matrix(0.4513 0.8924 -0.8924 0.4513 183.0957 -279.9421)" class="st2" width="3.2" height="2.5"/>
	</g>
</g>
<g>
	
		<radialGradient id="SVGID_28_" cx="-51.6697" cy="94.6381" r="5.0344" gradientTransform="matrix(0.729 0.6846 -0.6846 0.729 170.297 -24.1643)" gradientUnits="userSpaceOnUse">
		<stop  offset="0" style="stop-color:#EF8B06"/>
		<stop  offset="1" style="stop-color:#EF8B06;stop-opacity:0"/>
	</radialGradient>
	<circle class="st36" cx="67.8" cy="9.5" r="5"/>
	<g>
		<ellipse transform="matrix(0.7563 -0.6542 0.6542 0.7563 9.595 46.2735)" class="st19" cx="66.9" cy="10.3" rx="4.3" ry="2.3"/>
		
			<rect x="62.1" y="11.8" transform="matrix(0.6542 0.7563 -0.7563 0.6542 31.8889 -43.6343)" class="st2" width="3.2" height="2.5"/>
	</g>
</g>
<g>
	
		<radialGradient id="SVGID_29_" cx="165.2398" cy="-69.0201" r="5.0344" gradientTransform="matrix(-0.9038 0.4281 -0.4281 -0.9038 459.124 -85.6155)" gradientUnits="userSpaceOnUse">
		<stop  offset="0" style="stop-color:#EF8B06"/>
		<stop  offset="1" style="stop-color:#EF8B06;stop-opacity:0"/>
	</radialGradient>
	<circle class="st37" cx="339.3" cy="47.5" r="5"/>
	<g>
		
			<ellipse transform="matrix(0.9432 -0.3322 0.3322 0.9432 3.8557 115.2205)" class="st19" cx="338.9" cy="46.3" rx="2.3" ry="4.3"/>
		
			<rect x="335.9" y="41" transform="matrix(-0.9432 0.3322 -0.3322 -0.9432 669.8991 -29.963)" class="st2" width="3.2" height="2.5"/>
	</g>
</g>
<g>
	
		<radialGradient id="SVGID_30_" cx="203.5011" cy="-110.4959" r="5.0344" gradientTransform="matrix(0.8768 -0.4808 0.4808 0.8768 221.0822 200.4918)" gradientUnits="userSpaceOnUse">
		<stop  offset="0" style="stop-color:#F953D6"/>
		<stop  offset="1" style="stop-color:#F953D6;stop-opacity:0"/>
	</radialGradient>
	<circle class="st38" cx="346.4" cy="5.8" r="5"/>
	<g>
		
			<ellipse transform="matrix(0.9219 -0.3875 0.3875 0.9219 24.4272 134.9403)" class="st13" cx="346.9" cy="6.9" rx="2.3" ry="4.3"/>
		
			<rect x="346.9" y="9.6" transform="matrix(0.9219 -0.3875 0.3875 0.9219 23.0205 135.8896)" class="st2" width="3.2" height="2.5"/>
	</g>
</g>
<g>
	
		<radialGradient id="SVGID_31_" cx="259.9877" cy="-58.2181" r="5.0344" gradientTransform="matrix(-0.9953 -9.729120e-02 9.729120e-02 -0.9953 456.8734 16.5806)" gradientUnits="userSpaceOnUse">
		<stop  offset="0" style="stop-color:#F953D6"/>
		<stop  offset="1" style="stop-color:#F953D6;stop-opacity:0"/>
	</radialGradient>
	<circle class="st39" cx="192.5" cy="49.2" r="5"/>
	<g>
		
			<ellipse transform="matrix(0.1998 -0.9798 0.9798 0.1998 107.1449 227.2431)" class="st13" cx="192.7" cy="48" rx="4.3" ry="2.3"/>
		
			<rect x="192" y="42.6" transform="matrix(-0.9798 -0.1998 0.1998 -0.9798 374.4864 125.4294)" class="st2" width="3.2" height="2.5"/>
	</g>
</g>
<g>
	
		<radialGradient id="SVGID_32_" cx="363.8367" cy="-63.3143" r="5.0344" gradientTransform="matrix(0.6155 -0.7882 0.7882 0.6155 -89.8725 348.8476)" gradientUnits="userSpaceOnUse">
		<stop  offset="0" style="stop-color:#F953D6"/>
		<stop  offset="1" style="stop-color:#F953D6;stop-opacity:0"/>
	</radialGradient>
	<circle class="st40" cx="84.2" cy="23.1" r="5"/>
	<g>
		<ellipse transform="matrix(0.6938 -0.7202 0.7202 0.6938 8.7785 68.5919)" class="st13" cx="85" cy="24" rx="2.3" ry="4.3"/>
		<rect x="86.5" y="25.7" transform="matrix(0.6938 -0.7202 0.7202 0.6938 7.5701 71.7271)" class="st2" width="3.2" height="2.5"/>
	</g>
</g>
<g>
	
		<radialGradient id="SVGID_33_" cx="327.9229" cy="-118.5534" r="5.0344" gradientTransform="matrix(0.1782 -0.984 0.984 0.1782 79.053 364.3822)" gradientUnits="userSpaceOnUse">
		<stop  offset="0" style="stop-color:#F953D6"/>
		<stop  offset="1" style="stop-color:#F953D6;stop-opacity:0"/>
	</radialGradient>
	<circle class="st41" cx="20.8" cy="20.6" r="5"/>
	<g>
		<ellipse transform="matrix(0.2791 -0.9603 0.9603 0.2791 -4.2234 36.2243)" class="st13" cx="22" cy="20.9" rx="2.3" ry="4.3"/>
		<rect x="24.5" y="20.9" transform="matrix(0.2791 -0.9603 0.9603 0.2791 -2.4176 41.053)" class="st2" width="3.2" height="2.5"/>
	</g>
</g>
<g>
	
		<radialGradient id="SVGID_34_" cx="-253.1761" cy="165.4932" r="5.0344" gradientTransform="matrix(-4.948008e-02 0.9988 -0.9988 -4.948008e-02 226.5184 298.2612)" gradientUnits="userSpaceOnUse">
		<stop  offset="0" style="stop-color:#A4FFFA"/>
		<stop  offset="1" style="stop-color:#A4FFFA;stop-opacity:0"/>
	</radialGradient>
	<circle class="st42" cx="73.8" cy="37.2" r="5"/>
	<g>
		<ellipse transform="matrix(0.1526 -0.9883 0.9883 0.1526 24.8839 103.0591)" class="st7" cx="72.5" cy="37" rx="2.3" ry="4.3"/>
		
			<rect x="66.7" y="35.1" transform="matrix(-0.1526 0.9883 -0.9883 -0.1526 114.6455 -25.6011)" class="st2" width="3.2" height="2.5"/>
	</g>
</g>
<g>
	
		<radialGradient id="SVGID_35_" cx="-226.7267" cy="212.0545" r="5.0344" gradientTransform="matrix(-0.8551 -0.5185 0.5185 -0.8551 -296.4093 116.4189)" gradientUnits="userSpaceOnUse">
		<stop  offset="0" style="stop-color:#A4FFFA"/>
		<stop  offset="1" style="stop-color:#A4FFFA;stop-opacity:0"/>
	</radialGradient>
	<circle class="st43" cx="7.4" cy="52.6" r="5"/>
	<g>
		<ellipse transform="matrix(0.6042 -0.7968 0.7968 0.6042 -37.9379 26.941)" class="st7" cx="8.1" cy="51.7" rx="4.3" ry="2.3"/>
		<rect x="9.1" y="47" transform="matrix(-0.7968 -0.6042 0.6042 -0.7968 -9.825 93.1886)" class="st2" width="3.2" height="2.5"/>
	</g>
</g>
<g>
	
		<radialGradient id="SVGID_36_" cx="-236.6579" cy="336.1577" r="5.0344" gradientTransform="matrix(0.1154 0.9933 -0.9933 0.1154 385.6423 203.0219)" gradientUnits="userSpaceOnUse">
		<stop  offset="0" style="stop-color:#F74D56"/>
		<stop  offset="1" style="stop-color:#F74D56;stop-opacity:0"/>
	</radialGradient>
	<circle class="st44" cx="24.4" cy="6.8" r="5"/>
	<g>
		
			<ellipse transform="matrix(0.9999 -1.199753e-02 1.199753e-02 0.9999 -7.955356e-02 0.2786)" class="st1" cx="23.2" cy="6.8" rx="4.3" ry="2.3"/>
		
			<rect x="17.3" y="5.5" transform="matrix(1.199753e-02 0.9999 -0.9999 1.199753e-02 25.4678 -12.1602)" class="st2" width="3.2" height="2.5"/>
	</g>
</g>
</svg>
